REM MD5 42c296770b3a54187c60d0cdadd5574e
FILE "Simple 1500 Series Vol. 7 - The Card (Japan) (Culture Publishers).bin" BINARY
  TRACK 01 MODE2/2352
    INDEX 01 00:00:00
  TRACK 02 AUDIO
    INDEX 00 00:30:05
    INDEX 01 00:32:05
  TRACK 03 AUDIO
    INDEX 00 02:34:73
    INDEX 01 02:36:73
  TRACK 04 AUDIO
    INDEX 00 05:12:45
    INDEX 01 05:14:45
  TRACK 05 AUDIO
    INDEX 00 07:48:65
    INDEX 01 07:50:65
  TRACK 06 AUDIO
    INDEX 00 10:33:04
    INDEX 01 10:35:04
REM LEADOUT 13:10:51
